<svg version="1.1" id="Layer_1" xmlns="http://www.w3.org/2000/svg" xmlns:xlink="http://www.w3.org/1999/xlink" x="0px" y="0px"
	 width="100%" viewBox="0 0 130 132" enable-background="new 0 0 130 132" xml:space="preserve">
<path fill="#010102" opacity="1.000000" stroke="none" 
	d="
M47.000000,133.000000 
	C31.741589,133.000000 16.483175,133.000000 1.000000,133.000000 
	C1.000000,118.646553 1.000000,104.291939 1.330889,89.613289 
	C6.312017,97.189941 10.235340,105.665276 15.867436,112.789780 
	C19.637295,117.558594 25.834095,120.408852 31.119295,124.414017 
	C35.748230,126.769493 40.225239,128.782303 44.638794,130.925751 
	C45.547356,131.366989 46.219101,132.295883 47.000000,133.000000 
z"/>
<path fill="#020102" opacity="1.000000" stroke="none" 
	d="
M131.000000,92.000000 
	C131.000000,105.596764 131.000000,119.193535 131.000000,133.000000 
	C116.313103,133.000000 101.625214,133.000000 86.314552,132.646164 
	C87.461876,131.469589 89.231956,130.646866 91.354477,129.775253 
	C96.818291,126.851753 101.929680,123.977135 107.350937,120.961502 
	C108.784645,119.883949 110.121880,119.112816 110.997185,117.983627 
	C116.110474,111.387245 121.115562,104.706993 126.457504,97.885666 
	C127.537895,95.829933 128.317963,93.943588 129.414337,92.031494 
	C130.153763,92.003822 130.576889,92.001915 131.000000,92.000000 
z"/>
<path fill="#010102" opacity="1.000000" stroke="none" 
	d="
M0.999999,42.000000 
	C1.000000,28.404911 1.000000,14.809820 1.000000,1.000000 
	C15.020164,1.000000 29.041424,1.000000 43.828697,1.281287 
	C44.413486,1.766585 44.232262,1.970596 43.724148,2.152731 
	C42.547932,2.735955 41.698601,3.341054 40.584206,4.040700 
	C39.879845,4.477171 39.440548,4.819096 38.622368,5.099686 
	C34.456688,7.339645 30.669886,9.640939 26.561832,12.087120 
	C23.801804,14.440171 21.363028,16.648335 18.622372,19.011410 
	C13.080741,23.175163 9.491636,28.339636 6.783091,34.360176 
	C5.505777,37.199379 2.967121,39.471127 0.999999,42.000000 
z"/>
<path fill="#010102" opacity="1.000000" stroke="none" 
	d="
M88.000000,0.999999 
	C102.260017,1.000000 116.520042,1.000000 131.000000,1.000000 
	C131.000000,15.020128 131.000000,29.041405 130.711044,43.438576 
	C129.991180,43.192135 129.560257,42.569801 129.077255,41.569557 
	C125.087303,29.437645 117.634384,20.125315 107.723434,13.128086 
	C101.737076,8.901662 94.655792,6.226091 87.904938,2.491582 
	C87.828926,1.752986 87.914459,1.376493 88.000000,0.999999 
z"/>
<path fill="#7EACBC" opacity="1.000000" stroke="none" 
	d="
M87.531342,0.999999 
	C87.914459,1.376493 87.828926,1.752986 87.655228,2.759596 
	C84.784348,4.236710 81.975418,5.877984 79.223648,5.787199 
	C69.562065,5.468450 60.971546,8.672929 53.107941,13.584348 
	C45.391617,18.403780 40.109928,25.705080 35.540211,33.561401 
	C32.223087,39.264252 31.209042,44.893024 33.999241,51.333488 
	C33.998341,52.111267 33.997742,52.555714 33.763420,53.299843 
	C29.143335,64.032539 33.608627,73.238602 41.990013,81.371277 
	C41.982655,82.482758 41.973953,83.222946 41.751083,84.147026 
	C41.034264,84.886826 40.531612,85.442734 39.690132,85.927750 
	C38.532669,85.319229 37.514919,84.943916 36.924755,84.220016 
	C24.652340,69.166542 22.936560,52.484707 29.896511,34.783676 
	C35.187431,21.327436 44.489738,11.395730 57.623753,5.090270 
	C59.612110,4.135685 61.217476,2.383337 63.000000,0.999999 
	C71.020897,1.000000 79.041801,1.000000 87.531342,0.999999 
z"/>
<path fill="#78A7B7" opacity="1.000000" stroke="none" 
	d="
M62.533882,0.999999 
	C61.217476,2.383337 59.612110,4.135685 57.623753,5.090270 
	C44.489738,11.395730 35.187431,21.327436 29.896511,34.783676 
	C22.936560,52.484707 24.652340,69.166542 36.924755,84.220016 
	C37.514919,84.943916 38.532669,85.319229 39.682877,86.365974 
	C39.988792,88.921104 39.963139,90.967125 39.594833,92.941673 
	C37.943577,92.167862 36.371716,91.728073 35.367977,90.721657 
	C27.292629,82.624725 22.824596,72.065613 21.845715,61.422241 
	C21.034924,52.606518 20.756254,42.978615 24.820070,33.961082 
	C29.242466,24.147865 33.731026,14.798869 42.810383,8.275701 
	C45.100540,6.630308 46.299561,3.466201 48.000000,1.000000 
	C52.689255,1.000000 57.378513,1.000000 62.533882,0.999999 
z"/>
<path fill="#6092A2" opacity="1.000000" stroke="none" 
	d="
M47.468651,133.000000 
	C46.219101,132.295883 45.547356,131.366989 44.638794,130.925751 
	C40.225239,128.782303 35.748230,126.769493 31.070549,124.068108 
	C29.317852,121.541428 27.632244,119.761528 26.287796,117.753242 
	C22.131912,111.545326 18.106043,105.250366 14.392515,99.016632 
	C17.359777,101.520012 19.964218,103.995964 22.568657,106.471916 
	C23.233379,107.526833 25.200808,107.243042 25.997417,108.077263 
	C31.102596,113.423553 36.908508,117.584885 43.873280,120.152710 
	C47.956223,121.658028 51.959412,123.379646 56.126068,125.336441 
	C58.139549,126.464600 60.055592,127.196434 61.904766,128.069839 
	C65.290688,129.669098 68.637108,131.351974 72.000000,133.000000 
	C63.979099,133.000000 55.958202,133.000000 47.468651,133.000000 
z"/>
<path fill="#74A4B4" opacity="1.000000" stroke="none" 
	d="
M47.600006,1.000000 
	C46.299561,3.466201 45.100540,6.630308 42.810383,8.275701 
	C33.731026,14.798869 29.242466,24.147865 24.820070,33.961082 
	C20.756254,42.978615 21.034924,52.606518 21.845715,61.422241 
	C22.824596,72.065613 27.292629,82.624725 35.367977,90.721657 
	C36.371716,91.728073 37.943577,92.167862 39.609673,93.357193 
	C39.955654,95.232033 39.944157,96.619881 39.575775,97.983376 
	C37.074978,96.493805 34.537098,95.380722 32.856880,93.501007 
	C26.360601,86.233398 22.482872,77.521950 19.675169,68.263153 
	C15.870667,55.717285 17.059727,43.175205 22.285442,31.685249 
	C26.572380,22.259413 33.335651,13.959831 39.001251,5.161019 
	C39.440548,4.819096 39.879845,4.477171 40.895679,4.050336 
	C42.331825,3.368485 43.191429,2.771547 44.051033,2.174608 
	C44.232262,1.970596 44.413486,1.766585 44.297356,1.281287 
	C45.066669,1.000000 46.133339,1.000000 47.600006,1.000000 
z"/>
<path fill="#557F8E" opacity="1.000000" stroke="none" 
	d="
M14.029693,98.989204 
	C18.106043,105.250366 22.131912,111.545326 26.287796,117.753242 
	C27.632244,119.761528 29.317852,121.541428 30.896149,123.771713 
	C25.834095,120.408852 19.637295,117.558594 15.867436,112.789780 
	C10.235340,105.665276 6.312017,97.189941 1.330889,89.144630 
	C1.000000,84.643097 1.000000,80.286201 1.350399,75.313766 
	C3.468743,74.465187 5.236687,74.232132 7.013445,74.373924 
	C7.030945,75.498627 7.039631,76.248482 7.035665,77.415771 
	C9.358573,84.885208 11.694133,91.937202 14.029693,98.989204 
z"/>
<path fill="#7CABBC" opacity="1.000000" stroke="none" 
	d="
M129.129333,41.947472 
	C129.560257,42.569801 129.991180,43.192135 130.711044,43.907234 
	C131.000000,54.020893 131.000000,64.041786 130.658325,74.606407 
	C128.046021,78.097198 126.016235,81.275551 123.454491,83.943024 
	C118.177101,89.438210 112.615608,94.660545 107.015694,99.665047 
	C107.297501,96.554688 107.734619,93.774414 108.507217,90.921753 
	C110.734840,89.548225 113.178741,88.632378 114.409737,86.869545 
	C117.411232,82.571342 120.092178,78.002975 122.463356,73.321129 
	C126.656448,65.041969 128.625031,56.247890 127.822517,46.875721 
	C127.686035,45.281956 128.665451,43.592644 129.129333,41.947472 
z"/>
<path fill="#76A6B5" opacity="1.000000" stroke="none" 
	d="
M107.171005,99.995140 
	C112.615608,94.660545 118.177101,89.438210 123.454491,83.943024 
	C126.016235,81.275551 128.046021,78.097198 130.658325,75.075066 
	C131.000000,80.354927 131.000000,85.709862 131.000000,91.532394 
	C130.576889,92.001915 130.153763,92.003822 129.107452,91.900238 
	C127.025703,92.209396 125.336845,92.288261 124.151573,93.101288 
	C120.515205,95.595627 117.042686,98.333984 113.563736,101.050819 
	C111.188049,102.906067 108.908203,104.884041 106.484947,106.890411 
	C106.118843,106.452065 105.495239,105.705421 104.990372,104.680695 
	C105.796402,102.933449 106.483704,101.464294 107.171005,99.995140 
z"/>
<path fill="#5B8796" opacity="1.000000" stroke="none" 
	d="
M0.999999,42.449982 
	C2.967121,39.471127 5.505777,37.199379 6.783091,34.360176 
	C9.491636,28.339636 13.080741,23.175163 18.618309,19.387445 
	C17.262156,23.715563 15.608185,27.822556 13.677645,32.144321 
	C9.567721,38.685707 7.459826,45.471794 7.718840,53.233459 
	C7.319745,54.690353 7.121919,55.855553 6.574027,56.979424 
	C5.720662,55.699554 5.071188,54.497326 4.752167,53.213013 
	C4.378474,51.708595 4.292462,50.132721 3.927711,47.459602 
	C2.362578,49.352272 1.681289,50.176136 1.000000,51.000000 
	C1.000000,48.299988 1.000000,45.599972 0.999999,42.449982 
z"/>
<path fill="#6396A6" opacity="1.000000" stroke="none" 
	d="
M72.464645,133.000000 
	C68.637108,131.351974 65.290688,129.669098 61.904766,128.069839 
	C60.055592,127.196434 58.139549,126.464600 56.126831,125.334457 
	C56.000000,125.000000 56.000404,124.997589 56.445023,124.998245 
	C60.593224,124.998878 64.296806,124.998863 68.333344,124.999313 
	C69.110252,125.000938 69.554207,125.002083 70.087601,125.353317 
	C72.465584,126.580269 74.747032,128.149612 77.044304,128.173157 
	C80.569405,128.209229 84.137520,127.328156 87.627052,126.561630 
	C90.662048,125.894928 91.010635,127.569389 91.002045,129.824127 
	C89.231956,130.646866 87.461876,131.469589 85.845894,132.646164 
	C81.643097,133.000000 77.286201,133.000000 72.464645,133.000000 
z"/>
<path fill="#568292" opacity="1.000000" stroke="none" 
	d="
M1.000000,51.468636 
	C1.681289,50.176136 2.362578,49.352272 3.927711,47.459602 
	C4.292462,50.132721 4.378474,51.708595 4.752167,53.213013 
	C5.071188,54.497326 5.720662,55.699554 6.588916,57.444641 
	C6.970791,63.300488 6.987711,68.649788 7.004631,73.999084 
	C5.236687,74.232132 3.468743,74.465187 1.350399,74.849121 
	C1.000000,67.312424 1.000000,59.624847 1.000000,51.468636 
z"/>
<path fill="#6B9DAD" opacity="1.000000" stroke="none" 
	d="
M69.998154,125.003235 
	C69.554207,125.002083 69.110252,125.000938 68.090286,124.757736 
	C64.651825,122.284515 61.789383,120.053352 59.175613,117.498627 
	C63.236111,116.765656 67.047935,116.356239 71.159027,116.188324 
	C76.063866,116.841553 80.847359,118.222153 85.229523,117.417419 
	C90.590385,116.432945 96.831741,117.294662 101.107567,112.410782 
	C101.415291,112.059303 102.684906,112.666428 103.491539,112.608536 
	C104.765350,112.517105 106.347565,112.657509 107.238304,111.971466 
	C112.053322,108.262985 116.644203,104.264595 121.429993,100.516365 
	C122.804916,99.439529 124.570641,98.861687 126.157181,98.055054 
	C121.115562,104.706993 116.110474,111.387245 110.997185,117.983627 
	C110.121880,119.112816 108.784645,119.883949 107.108818,120.773018 
	C103.117638,120.781631 99.633797,120.504700 96.247963,120.958710 
	C87.474991,122.135086 78.745186,123.633423 69.998154,125.003235 
z"/>
<path fill="#71A2B2" opacity="1.000000" stroke="none" 
	d="
M126.457497,97.885666 
	C124.570641,98.861687 122.804916,99.439529 121.429993,100.516365 
	C116.644203,104.264595 112.053322,108.262985 107.238304,111.971466 
	C106.347565,112.657509 104.765350,112.517105 103.491539,112.608536 
	C102.684906,112.666428 101.415291,112.059303 101.107567,112.410782 
	C96.831741,117.294662 90.590385,116.432945 85.229523,117.417419 
	C80.847359,118.222153 76.063866,116.841553 71.379463,115.850479 
	C82.776794,112.764191 94.768143,111.934372 104.871635,104.958778 
	C105.495239,105.705421 106.118843,106.452065 106.484947,106.890411 
	C108.908203,104.884041 111.188049,102.906067 113.563736,101.050819 
	C117.042686,98.333984 120.515205,95.595627 124.151573,93.101288 
	C125.336845,92.288261 127.025703,92.209396 128.791138,91.925995 
	C128.317963,93.943588 127.537895,95.829933 126.457497,97.885666 
z"/>
<path fill="#6698A9" opacity="1.000000" stroke="none" 
	d="
M70.087601,125.353325 
	C78.745186,123.633423 87.474991,122.135086 96.247963,120.958710 
	C99.633797,120.504700 103.117638,120.781631 106.798950,120.914032 
	C101.929680,123.977135 96.818291,126.851753 91.354477,129.775253 
	C91.010635,127.569389 90.662048,125.894928 87.627052,126.561630 
	C84.137520,127.328156 80.569405,128.209229 77.044304,128.173157 
	C74.747032,128.149612 72.465584,126.580269 70.087601,125.353325 
z"/>
<path fill="#6F9FAF" opacity="1.000000" stroke="none" 
	d="
M13.954215,31.929550 
	C15.608185,27.822556 17.262156,23.715563 18.920189,19.232534 
	C21.363028,16.648335 23.801804,14.440171 26.786524,12.362156 
	C26.711433,14.932677 26.597277,17.663694 25.390539,19.768225 
	C13.992511,39.646198 10.702883,59.922539 21.828585,81.057976 
	C24.125370,85.421173 26.604296,89.688492 28.634464,93.977768 
	C27.128653,93.358856 25.504166,93.058357 24.927038,92.116249 
	C21.762678,86.950737 18.031160,81.914085 16.075773,76.283966 
	C13.824662,69.802353 13.100790,62.768467 11.965092,55.932659 
	C11.543544,53.395351 11.589728,50.714794 11.851202,48.143143 
	C12.402258,42.723366 13.236296,37.332359 13.954215,31.929550 
z"/>
<path fill="#71A2B2" opacity="1.000000" stroke="none" 
	d="
M28.999275,94.000000 
	C26.604296,89.688492 24.125370,85.421173 21.828585,81.057976 
	C10.702883,59.922539 13.992511,39.646198 25.390539,19.768225 
	C26.597277,17.663694 26.711433,14.932677 27.107777,12.217268 
	C30.669886,9.640939 34.456688,7.339645 38.622368,5.099686 
	C33.335651,13.959831 26.572380,22.259413 22.285442,31.685249 
	C17.059727,43.175205 15.870667,55.717285 19.675169,68.263153 
	C22.482872,77.521950 26.360601,86.233398 32.856880,93.501007 
	C34.537098,95.380722 37.074978,96.493805 39.595192,98.411285 
	C39.967716,100.577225 39.963936,102.290909 39.633694,104.003326 
	C38.870983,104.001991 38.434734,104.001907 37.999245,104.000916 
	C38.000000,104.000000 37.998089,104.001373 37.975647,103.638939 
	C35.302719,100.850739 32.652229,98.424980 29.944855,95.718613 
	C29.591736,94.958672 29.295506,94.479332 28.999275,94.000000 
z"/>
<path fill="#78A7B7" opacity="1.000000" stroke="none" 
	d="
M43.724148,2.152732 
	C43.191429,2.771547 42.331825,3.368485 41.160744,3.955788 
	C41.698601,3.341054 42.547932,2.735955 43.724148,2.152732 
z"/>
<path fill="#82B0C1" opacity="1.000000" stroke="none" 
	d="
M129.077271,41.569557 
	C128.665451,43.592644 127.686035,45.281956 127.822517,46.875721 
	C128.625031,56.247890 126.656448,65.041969 122.463356,73.321129 
	C120.092178,78.002975 117.411232,82.571342 114.409737,86.869545 
	C113.178741,88.632378 110.734840,89.548225 108.437943,90.472092 
	C108.079048,87.061295 108.124893,84.027779 108.541656,80.989258 
	C110.702347,79.975174 113.200455,79.411568 114.162407,77.881920 
	C118.989601,70.205933 122.556503,61.850773 121.832901,52.628647 
	C121.418839,47.351528 119.332016,42.205662 117.997589,36.600540 
	C118.113205,33.353664 117.626228,30.970594 114.000427,30.599941 
	C113.999352,29.134289 113.998146,28.068394 113.923508,26.658951 
	C111.480324,23.949032 109.068611,21.622961 106.748802,19.208591 
	C100.252533,12.447515 91.933678,10.443703 82.561218,10.001450 
	C78.415443,10.334123 74.707726,10.667018 70.724045,10.827461 
	C56.590351,12.194063 47.863850,20.811827 40.938225,32.340042 
	C40.598721,34.825603 40.322063,36.971775 39.894890,39.444298 
	C36.606281,41.775234 36.711510,44.815918 36.891014,48.160645 
	C35.768288,49.243259 34.883915,50.121708 33.999542,51.000153 
	C31.209042,44.893024 32.223087,39.264252 35.540211,33.561401 
	C40.109928,25.705080 45.391617,18.403780 53.107941,13.584348 
	C60.971546,8.672929 69.562065,5.468450 79.223648,5.787199 
	C81.975418,5.877984 84.784348,4.236710 87.816772,3.121699 
	C94.655792,6.226091 101.737076,8.901662 107.723434,13.128086 
	C117.634384,20.125315 125.087303,29.437645 129.077271,41.569557 
z"/>
<path fill="#86B5C4" opacity="1.000000" stroke="none" 
	d="
M33.999241,51.333488 
	C34.883915,50.121708 35.768288,49.243259 37.193062,48.292015 
	C38.828968,49.534760 39.924477,50.850304 41.184311,52.321861 
	C41.592327,52.658459 41.849174,52.817825 42.084324,52.958706 
	C42.049461,52.961433 42.062675,52.892754 42.047588,53.355877 
	C41.663898,61.537449 42.352089,68.883995 49.030396,74.384026 
	C47.320648,76.483109 45.741928,78.274574 43.920464,79.811401 
	C39.615597,72.731613 35.992767,65.780174 35.765316,57.534843 
	C35.723202,56.008183 34.613899,54.510967 33.997143,53.000160 
	C33.997742,52.555714 33.998341,52.111267 33.999241,51.333488 
z"/>
<path fill="#82B0C1" opacity="1.000000" stroke="none" 
	d="
M33.763420,53.299843 
	C34.613899,54.510967 35.723202,56.008183 35.765316,57.534843 
	C35.992767,65.780174 39.615597,72.731613 43.847736,80.047058 
	C44.017757,80.537354 43.812557,80.986008 43.508862,80.991005 
	C42.799667,80.997330 42.394169,80.998665 41.988670,81.000000 
	C33.608627,73.238602 29.143335,64.032539 33.763420,53.299843 
z"/>
<path fill="#92B5C1" opacity="1.000000" stroke="none" 
	d="
M39.960159,104.004593 
	C39.963936,102.290909 39.967716,100.577225 39.952076,98.435631 
	C39.944157,96.619881 39.955654,95.232033 39.952316,93.428665 
	C39.963139,90.967125 39.988792,88.921104 40.021706,86.436859 
	C40.531612,85.442734 41.034264,84.886826 41.778107,84.172897 
	C42.019295,84.014893 42.073456,84.064308 42.051754,84.497742 
	C41.631779,92.602257 41.233505,100.273346 40.662197,107.813728 
	C40.277679,107.482193 40.100616,107.254585 39.974075,106.625946 
	C39.980171,105.502663 39.970165,104.753624 39.960159,104.004593 
z"/>
<path fill="#92B5C1" opacity="1.000000" stroke="none" 
	d="
M41.990013,81.371277 
	C42.394169,80.998665 42.799667,80.997330 43.500725,81.305031 
	C43.222012,82.430809 42.647736,83.247559 42.073456,84.064308 
	C42.073456,84.064308 42.019295,84.014893 41.992271,83.989014 
	C41.973953,83.222946 41.982655,82.482758 41.990013,81.371277 
z"/>
<path fill="#6597A9" opacity="1.000000" stroke="none" 
	d="
M14.392516,99.016632 
	C11.694133,91.937202 9.358573,84.885208 7.373725,77.493896 
	C9.206864,78.989464 11.245077,80.602524 12.080405,82.695633 
	C17.043776,95.132553 25.557972,104.326172 37.142059,111.189987 
	C37.494541,111.619789 37.732471,111.827385 38.071022,112.325012 
	C39.812378,113.079987 41.481758,113.512085 43.460381,114.078133 
	C45.846992,115.523315 47.924358,116.834549 50.084759,118.468719 
	C52.111996,120.860298 54.056202,122.928940 56.000404,124.997589 
	C56.000404,124.997589 56.000000,125.000000 55.999237,125.001984 
	C51.959412,123.379646 47.956223,121.658028 43.873280,120.152710 
	C36.908508,117.584885 31.102596,113.423553 25.997417,108.077263 
	C25.200808,107.243042 23.233379,107.526833 22.568657,106.471916 
	C19.964218,103.995964 17.359777,101.520012 14.392516,99.016632 
z"/>
<path fill="#679AAA" opacity="1.000000" stroke="none" 
	d="
M36.998859,111.000610 
	C25.557972,104.326172 17.043776,95.132553 12.080405,82.695633 
	C11.245077,80.602524 9.206864,78.989464 7.386378,77.076469 
	C7.039631,76.248482 7.030945,75.498627 7.013445,74.373924 
	C6.987711,68.649788 6.970791,63.300488 6.938982,57.485970 
	C7.121919,55.855553 7.319745,54.690353 7.954522,53.562347 
	C9.469165,59.760754 9.752580,66.198746 11.783775,72.027695 
	C16.556259,85.723366 23.163036,98.460251 34.956085,107.736176 
	C35.905514,108.482964 36.330284,109.896767 36.998859,111.000610 
z"/>
<path fill="#010105" opacity="1.000000" stroke="none" 
	d="
M50.001724,118.145798 
	C47.924358,116.834549 45.846992,115.523315 43.395405,113.832428 
	C42.960266,113.294678 42.899353,113.136566 42.851330,112.721146 
	C42.587532,112.276024 42.310841,112.088211 42.029076,111.930389 
	C42.023998,111.960373 42.076759,111.930275 42.038761,111.572723 
	C41.612251,110.124931 41.223740,109.034676 40.835232,107.944427 
	C41.233505,100.273346 41.631779,92.602257 42.051754,84.497742 
	C42.647736,83.247559 43.222012,82.430809 43.804420,81.300034 
	C43.812557,80.986008 44.017757,80.537354 44.090485,80.301697 
	C45.741928,78.274574 47.320648,76.483109 49.375671,74.355972 
	C52.236710,72.288330 54.621437,70.556358 57.348755,68.796921 
	C58.830704,68.195656 59.970055,67.621864 61.498291,67.024391 
	C64.258919,66.279892 66.630661,65.559082 69.300842,64.863800 
	C70.734650,64.535934 71.870018,64.182541 73.428253,63.901558 
	C78.565666,63.258556 83.280205,62.543140 88.405975,61.908112 
	C90.209358,61.935368 91.601509,61.882229 93.414726,61.904446 
	C95.544678,62.023163 97.253555,62.066525 99.128792,62.433609 
	C101.186485,64.205284 103.077827,65.653236 105.104820,67.426239 
	C106.091637,70.525833 106.942802,73.300385 107.808655,76.486877 
	C107.939133,78.263969 108.054932,79.629120 108.170731,80.994263 
	C108.124893,84.027779 108.079048,87.061295 108.102470,90.544479 
	C107.734619,93.774414 107.297501,96.554688 107.015694,99.665047 
	C106.483704,101.464294 105.796402,102.933449 104.990372,104.680695 
	C94.768143,111.934372 82.776794,112.764191 71.080185,115.608978 
	C67.047935,116.356239 63.236111,116.765656 58.734001,117.561371 
	C55.363052,118.013702 52.682388,118.079750 50.001724,118.145798 
M44.640995,89.288040 
	C44.389908,89.529182 44.317802,89.815422 44.368282,90.793739 
	C44.540691,91.849731 44.713104,92.905716 44.261166,94.443054 
	C44.231670,96.291290 44.202175,98.139534 44.051971,100.815147 
	C44.091759,102.205742 44.131542,103.596329 44.083035,105.688652 
	C46.045300,114.217354 46.045300,114.217354 54.831944,113.949356 
	C56.904320,113.699303 58.976696,113.449257 61.836220,113.077827 
	C62.893452,112.992447 63.950680,112.907066 65.672852,112.935120 
	C66.119614,112.899887 66.566376,112.864647 67.816315,112.971817 
	C70.889809,112.018456 73.963310,111.065094 77.667969,110.147583 
	C80.380760,110.827324 81.162125,109.215134 81.676186,106.762367 
	C81.825600,106.588142 81.924934,106.388954 82.512917,106.559151 
	C84.015884,110.375397 86.782578,107.731483 89.798096,107.934952 
	C91.526970,107.599533 93.452660,107.639160 94.946266,106.855392 
	C98.778542,104.844460 103.891548,103.911949 103.937164,97.163216 
	C103.910507,96.108833 103.883842,95.054443 103.992813,93.222961 
	C104.048798,92.173149 104.104782,91.123329 104.785873,89.498779 
	C104.849777,86.202362 105.357674,82.842369 104.896423,79.621147 
	C103.357803,68.875908 102.097801,63.775440 88.588898,65.064751 
	C84.052551,65.497704 79.565414,66.446304 74.244141,67.080208 
	C67.549606,69.540787 60.855076,72.001366 54.163601,74.498772 
	C54.163601,74.498772 54.187229,74.527679 53.999001,74.642555 
	C53.999001,74.642555 53.951836,74.857964 53.275482,75.030083 
	C48.943073,78.040810 45.019035,81.334648 44.869526,87.642525 
	C44.869526,87.642525 44.936790,88.065498 44.948101,88.500389 
	C44.948101,88.500389 44.963070,88.935181 45.064655,88.986710 
	C45.064655,88.986710 45.065517,89.100616 44.640995,89.288040 
z"/>
<path fill="#6A9CAD" opacity="1.000000" stroke="none" 
	d="
M40.662197,107.813728 
	C41.223740,109.034676 41.612251,110.124931 41.631310,111.588402 
	C40.174252,111.975128 39.086647,111.988632 37.999046,112.002136 
	C37.732471,111.827385 37.494541,111.619789 37.142059,111.189987 
	C36.330284,109.896767 35.905514,108.482964 34.956085,107.736176 
	C23.163036,98.460251 16.556259,85.723366 11.783775,72.027695 
	C9.752580,66.198746 9.469165,59.760754 8.155792,53.270653 
	C7.459826,45.471794 9.567721,38.685707 13.677647,32.144321 
	C13.236296,37.332359 12.402258,42.723366 11.851202,48.143143 
	C11.589728,50.714794 11.543544,53.395351 11.965092,55.932659 
	C13.100790,62.768467 13.824662,69.802353 16.075773,76.283966 
	C18.031160,81.914085 21.762678,86.950737 24.927038,92.116249 
	C25.504166,93.058357 27.128653,93.358856 28.634466,93.977768 
	C29.295506,94.479332 29.591736,94.958672 29.950085,96.108063 
	C29.875181,102.280380 34.064907,102.999062 37.998089,104.001373 
	C37.998089,104.001373 38.000000,104.000000 38.023453,104.332520 
	C38.683929,105.443428 39.320953,106.221809 39.957977,107.000198 
	C40.100616,107.254585 40.277679,107.482193 40.662197,107.813728 
z"/>
<path fill="#6698A9" opacity="1.000000" stroke="none" 
	d="
M50.084759,118.468719 
	C52.682388,118.079750 55.363052,118.013702 58.485329,117.884918 
	C61.789383,120.053352 64.651825,122.284515 67.757332,124.757263 
	C64.296806,124.998863 60.593224,124.998878 56.445023,124.998245 
	C54.056202,122.928940 52.111996,120.860298 50.084759,118.468719 
z"/>
<path fill="#6F9FAF" opacity="1.000000" stroke="none" 
	d="
M37.975647,103.638939 
	C34.064907,102.999062 29.875181,102.280380 30.006971,96.388672 
	C32.652229,98.424980 35.302719,100.850739 37.975647,103.638939 
z"/>
<path fill="#6F9FAF" opacity="1.000000" stroke="none" 
	d="
M39.974075,106.625946 
	C39.320953,106.221809 38.683929,105.443428 38.022697,104.333435 
	C38.434734,104.001907 38.870983,104.001991 39.633690,104.003326 
	C39.970165,104.753624 39.980171,105.502663 39.974075,106.625946 
z"/>
<path fill="#88B6C5" opacity="1.000000" stroke="none" 
	d="
M108.541656,80.989258 
	C108.054932,79.629120 107.939133,78.263969 108.141678,76.364090 
	C114.264717,69.072319 116.114754,60.869308 115.772743,52.392963 
	C115.603523,48.199051 113.241516,44.093613 111.856392,39.660198 
	C112.187866,38.566505 112.534592,37.760757 113.185822,37.081062 
	C114.992981,37.138313 116.495651,37.069508 117.998322,37.000702 
	C119.332016,42.205662 121.418839,47.351528 121.832901,52.628647 
	C122.556503,61.850773 118.989601,70.205933 114.162407,77.881920 
	C113.200455,79.411568 110.702347,79.975174 108.541656,80.989258 
z"/>
<path fill="#020203" opacity="1.000000" stroke="none" 
	d="
M41.019985,52.165848 
	C39.924477,50.850304 38.828968,49.534760 37.431416,48.087845 
	C36.711510,44.815918 36.606281,41.775234 40.224316,39.391258 
	C41.470497,38.617596 42.236736,38.223320 43.366364,37.900143 
	C44.468098,38.014900 45.206444,38.058563 46.096519,38.405502 
	C48.153511,40.496044 50.058765,42.283302 51.884132,44.390919 
	C52.422165,48.150055 50.980335,50.532951 47.616943,52.079323 
	C45.508739,52.317844 43.785709,52.605301 42.062675,52.892754 
	C42.062675,52.892754 42.049461,52.961433 41.990509,52.712074 
	C41.627701,52.363762 41.323841,52.264805 41.019985,52.165848 
z"/>
<path fill="#86B6C4" opacity="1.000000" stroke="none" 
	d="
M71.000000,10.999914 
	C74.707726,10.667018 78.415443,10.334123 82.706947,10.338043 
	C84.770363,11.181512 86.237518,11.728820 87.731781,12.187871 
	C94.691849,14.326073 102.051880,15.776244 105.621994,22.977051 
	C102.874420,21.897900 100.510864,20.827795 98.133896,19.788359 
	C94.453545,18.178967 90.894043,16.089314 87.052567,15.092807 
	C77.761124,12.682538 68.782425,14.806091 60.085155,17.652195 
	C63.780819,15.203989 67.390411,13.101952 71.000000,10.999914 
z"/>
<path fill="#84B4C3" opacity="1.000000" stroke="none" 
	d="
M70.724045,10.827463 
	C67.390411,13.101952 63.780819,15.203989 59.835838,17.653036 
	C59.500446,18.000046 59.001785,18.001450 58.651733,18.068157 
	C54.509228,21.129614 50.705811,24.110622 46.928768,27.124689 
	C44.929195,28.720343 42.975483,30.373472 41.001068,32.000652 
	C47.863850,20.811827 56.590351,12.194063 70.724045,10.827463 
z"/>
<path fill="#84B4C3" opacity="1.000000" stroke="none" 
	d="
M106.000000,22.999847 
	C102.051880,15.776244 94.691849,14.326073 87.731781,12.187871 
	C86.237518,11.728820 84.770363,11.181512 83.144989,10.338265 
	C91.933678,10.443703 100.252533,12.447515 106.748802,19.208591 
	C109.068611,21.622961 111.480324,23.949032 113.577744,26.582455 
	C110.870880,25.899084 108.436356,24.948666 106.001373,23.748657 
	C106.000916,23.499069 106.000000,22.999847 106.000000,22.999847 
z"/>
<path fill="#86B6C4" opacity="1.000000" stroke="none" 
	d="
M40.938225,32.340042 
	C42.975483,30.373472 44.929195,28.720343 46.928768,27.124689 
	C50.705811,24.110622 54.509228,21.129614 58.617584,18.423153 
	C57.931313,19.669807 56.811737,20.533205 55.946774,21.602556 
	C51.595642,26.981833 47.310978,32.414879 43.002975,37.829044 
	C42.236736,38.223320 41.470497,38.617596 40.374832,39.064911 
	C40.322063,36.971775 40.598721,34.825603 40.938225,32.340042 
z"/>
<path fill="#88B6C5" opacity="1.000000" stroke="none" 
	d="
M106.001831,23.998245 
	C108.436356,24.948666 110.870880,25.899084 113.651169,26.926001 
	C113.998146,28.068394 113.999352,29.134289 114.079964,30.891306 
	C114.699043,32.973431 116.767601,34.807697 113.097504,34.634335 
	C111.016685,32.123131 109.007217,29.976452 106.931641,27.506069 
	C106.577637,26.120993 106.289734,25.059618 106.001831,23.998245 
z"/>
<path fill="#86B6C4" opacity="1.000000" stroke="none" 
	d="
M113.168854,34.998856 
	C116.767601,34.807697 114.699043,32.973431 114.079834,31.291061 
	C117.626228,30.970594 118.113205,33.353664 117.997581,36.600540 
	C116.495651,37.069508 114.992981,37.138313 113.239868,36.755211 
	C113.049232,35.868484 113.109039,35.433670 113.168854,34.998856 
z"/>
<path fill="#8FBCCB" opacity="1.000000" stroke="none" 
	d="
M42.047588,53.355877 
	C43.785709,52.605301 45.508739,52.317844 47.638729,52.457268 
	C50.032688,58.759586 50.313721,65.594009 57.006165,68.824387 
	C54.621437,70.556358 52.236710,72.288330 49.506706,74.048355 
	C42.352089,68.883995 41.663898,61.537449 42.047588,53.355877 
z"/>
<path fill="#8FBCCB" opacity="1.000000" stroke="none" 
	d="
M41.184311,52.321861 
	C41.323841,52.264805 41.627701,52.363762 42.025372,52.709351 
	C41.849174,52.817825 41.592327,52.658459 41.184311,52.321861 
z"/>
<path fill="#679AAA" opacity="1.000000" stroke="none" 
	d="
M38.071022,112.325012 
	C39.086647,111.988632 40.174252,111.975128 41.669304,111.945953 
	C42.076759,111.930275 42.023998,111.960373 42.139153,112.127640 
	C42.414993,112.551826 42.609707,112.779678 42.838440,112.978462 
	C42.899353,113.136566 42.960266,113.294678 43.086159,113.698486 
	C41.481758,113.512085 39.812378,113.079987 38.071022,112.325012 
z"/>
<path fill="#97C5D2" opacity="1.000000" stroke="none" 
	d="
M57.348755,68.796913 
	C50.313721,65.594009 50.032688,58.759586 48.023899,52.506199 
	C50.980335,50.532951 52.422165,48.150055 52.057785,44.097717 
	C57.851139,34.893112 64.409447,27.630476 75.454544,26.745049 
	C79.494049,26.421223 84.340652,25.213432 87.441170,26.916870 
	C91.266685,29.018621 94.757935,30.908340 99.057510,31.431343 
	C96.934547,37.368214 97.835121,39.412357 104.081497,43.495731 
	C108.414841,50.595219 108.798981,61.805962 104.969170,67.101189 
	C103.077827,65.653236 101.186485,64.205284 99.117325,62.053032 
	C99.213478,57.604309 100.409286,53.644909 99.595253,50.154209 
	C96.707382,37.770561 85.596199,28.696781 71.664803,35.122795 
	C62.381260,39.404938 56.979088,45.042545 58.142155,55.395512 
	C58.585400,59.341022 60.089039,63.167404 61.109409,67.048080 
	C59.970055,67.621864 58.830704,68.195656 57.348755,68.796913 
z"/>
<path fill="#455099" opacity="1.000000" stroke="none" 
	d="
M104.160767,90.073517 
	C104.104782,91.123329 104.048798,92.173149 103.637215,93.632370 
	C99.724030,95.834114 103.555267,96.651764 103.796242,97.943024 
	C103.891548,103.911949 98.778542,104.844460 94.946266,106.855392 
	C93.452660,107.639160 91.526970,107.599533 89.545509,107.573608 
	C95.210297,103.722366 95.549339,101.719284 90.664803,96.225441 
	C88.379684,93.655266 85.615524,91.516502 83.145882,89.103004 
	C81.432953,87.429016 79.668999,85.755928 78.248291,83.844292 
	C74.655228,79.009666 71.728676,73.195808 64.697243,72.995987 
	C61.201717,72.896652 57.673801,73.937103 54.160542,74.461937 
	C60.855076,72.001366 67.549606,69.540787 74.970856,67.308929 
	C77.788017,67.954926 80.493866,67.683739 81.863205,68.907745 
	C88.040771,74.429672 93.828239,80.387009 99.783722,86.159134 
	C101.188110,87.520287 102.698914,88.771652 104.160767,90.073517 
z"/>
<path fill="#414C97" opacity="1.000000" stroke="none" 
	d="
M54.162071,74.480354 
	C57.673801,73.937103 61.201717,72.896652 64.697243,72.995987 
	C71.728676,73.195808 74.655228,79.009666 78.248291,83.844292 
	C79.668999,85.755928 81.432953,87.429016 83.145882,89.103004 
	C85.615524,91.516502 88.379684,93.655266 90.664803,96.225441 
	C95.549339,101.719284 95.210297,103.722366 89.152802,107.521454 
	C86.782578,107.731483 84.015884,110.375397 82.264526,105.954880 
	C81.322464,103.390167 80.628799,101.429718 79.718452,99.394157 
	C79.432076,99.183876 79.294083,99.041985 79.306580,98.914909 
	C79.334610,98.629860 79.437447,98.352165 79.329369,97.730240 
	C78.253815,96.578476 77.358727,95.767952 76.281479,94.793198 
	C75.413467,93.927711 74.727615,93.226433 73.950134,92.168655 
	C72.886986,91.201042 71.915482,90.589920 70.984482,89.974876 
	C71.024979,89.970955 71.034477,90.051781 70.908447,89.750793 
	C70.164429,89.303650 69.546448,89.157486 68.967140,89.000214 
	C69.005814,88.989113 69.028542,89.066315 68.824112,88.743134 
	C66.374451,87.764465 64.129204,87.108994 61.545296,86.320160 
	C58.441685,86.431381 55.676743,86.675964 52.505310,86.940552 
	C50.743050,87.013695 49.387287,87.066826 47.632519,87.074203 
	C46.431454,87.090965 45.629395,87.153488 44.827335,87.216011 
	C45.019035,81.334648 48.943073,78.040810 53.725918,75.026016 
	C54.176353,75.021942 54.426334,74.845764 54.426334,74.845764 
	C54.426334,74.845764 54.187229,74.527679 54.187229,74.527679 
	C54.187229,74.527679 54.163601,74.498772 54.162071,74.480354 
z"/>
<path fill="#9FCBD8" opacity="1.000000" stroke="none" 
	d="
M61.498291,67.024391 
	C60.089039,63.167404 58.585400,59.341022 58.142155,55.395512 
	C56.979088,45.042545 62.381260,39.404938 71.664803,35.122795 
	C85.596199,28.696781 96.707382,37.770561 99.595253,50.154209 
	C100.409286,53.644909 99.213478,57.604309 98.950974,61.729309 
	C97.253555,62.066525 95.544678,62.023163 93.415970,61.478745 
	C92.941742,55.465309 94.549881,49.732296 89.646439,45.079056 
	C86.188301,41.797371 78.433304,38.600555 75.357323,39.873985 
	C67.601418,43.084866 64.515427,46.887478 65.177338,54.388439 
	C65.492195,57.956448 67.669044,61.360142 69.002411,64.838272 
	C66.630661,65.559082 64.258919,66.279892 61.498291,67.024391 
z"/>
<path fill="#A5D1DD" opacity="1.000000" stroke="none" 
	d="
M69.300842,64.863800 
	C67.669044,61.360142 65.492195,57.956448 65.177338,54.388439 
	C64.515427,46.887478 67.601418,43.084866 75.357323,39.873985 
	C78.433304,38.600555 86.188301,41.797371 89.646439,45.079056 
	C94.549881,49.732296 92.941742,55.465309 92.994904,61.403389 
	C91.601509,61.882229 90.209358,61.935368 88.306381,61.608116 
	C87.734268,59.572815 87.315216,57.834389 87.678383,56.278545 
	C88.794289,51.497814 87.131165,48.128407 82.276749,45.165802 
	C78.072746,42.600147 76.562706,45.861671 74.170303,48.168644 
	C70.932228,51.291096 70.312363,54.439812 72.123207,58.484089 
	C72.836845,60.077904 72.735573,62.036602 73.005386,63.829144 
	C71.870018,64.182541 70.734650,64.535934 69.300842,64.863800 
z"/>
<path fill="#49559D" opacity="1.000000" stroke="none" 
	d="
M104.473320,89.786148 
	C102.698914,88.771652 101.188110,87.520287 99.783722,86.159134 
	C93.828239,80.387009 88.040771,74.429672 81.863205,68.907745 
	C80.493866,67.683739 77.788017,67.954926 75.376678,67.348434 
	C79.565414,66.446304 84.052551,65.497704 88.588898,65.064751 
	C102.097801,63.775440 103.357803,68.875908 104.896423,79.621147 
	C105.357674,82.842369 104.849777,86.202362 104.473320,89.786148 
z"/>
<path fill="#ACD5E3" opacity="1.000000" stroke="none" 
	d="
M73.428253,63.901558 
	C72.735573,62.036602 72.836845,60.077904 72.123207,58.484089 
	C70.312363,54.439812 70.932228,51.291096 74.170303,48.168644 
	C76.562706,45.861671 78.072746,42.600147 82.276749,45.165802 
	C87.131165,48.128407 88.794289,51.497814 87.678383,56.278545 
	C87.315216,57.834389 87.734268,59.572815 87.895157,61.527725 
	C83.280205,62.543140 78.565666,63.258556 73.428253,63.901558 
z"/>
<path fill="#8FBCCC" opacity="1.000000" stroke="none" 
	d="
M105.104820,67.426239 
	C108.798981,61.805962 108.414841,50.595219 104.459190,43.426483 
	C107.121445,41.992916 109.496544,40.970531 111.871643,39.948143 
	C113.241516,44.093613 115.603523,48.199051 115.772743,52.392963 
	C116.114754,60.869308 114.264717,69.072319 108.126984,75.952148 
	C106.942802,73.300385 106.091637,70.525833 105.104820,67.426239 
z"/>
<path fill="#AA5A5D" opacity="1.000000" stroke="none" 
	d="
M77.036804,110.111732 
	C73.963310,111.065094 70.889809,112.018456 67.550537,112.594597 
	C71.899559,110.266884 71.321175,107.115120 68.884186,103.977661 
	C64.983360,98.955612 60.568920,94.480804 53.915581,92.686142 
	C53.219395,91.025673 52.614594,89.674965 52.372715,88.230186 
	C53.478867,88.041000 54.222095,87.945900 55.383583,87.913422 
	C57.204884,88.033386 58.607918,88.090721 60.126137,88.464851 
	C61.838760,89.854637 63.407578,90.973793 65.042038,91.987076 
	C66.545418,92.919067 69.043121,93.401161 69.502296,94.663589 
	C71.480560,100.102486 77.281288,103.657639 77.036804,110.111732 
z"/>
<path fill="#9D5052" opacity="1.000000" stroke="none" 
	d="
M65.007912,112.821686 
	C63.950680,112.907066 62.893452,112.992447 61.373997,112.776794 
	C57.545540,105.346146 53.279652,99.422432 44.172680,99.987770 
	C44.202175,98.139534 44.231670,96.291290 44.963852,94.281425 
	C47.777939,94.412498 49.889347,94.705200 52.234200,95.238487 
	C54.256321,96.636055 56.186886,97.623940 57.806160,98.982773 
	C62.086704,102.574883 66.416428,106.232521 65.007912,112.821686 
z"/>
<path fill="#B25E61" opacity="1.000000" stroke="none" 
	d="
M77.352386,110.129654 
	C77.281288,103.657639 71.480560,100.102486 69.502296,94.663589 
	C69.043121,93.401161 66.545418,92.919067 65.042038,91.987076 
	C63.407578,90.973793 61.838760,89.854637 60.462570,88.413544 
	C61.133080,87.987488 61.582348,87.929527 62.259029,87.928337 
	C62.486446,87.985100 62.948219,88.065933 63.131142,88.187363 
	C63.314068,88.308792 63.743954,88.396683 63.743954,88.396683 
	C63.743954,88.396683 64.171127,88.296402 64.571472,88.414230 
	C66.324051,88.710144 67.676300,88.888229 69.028542,89.066315 
	C69.028542,89.066315 69.005814,88.989113 69.039848,89.329880 
	C69.727417,89.797691 70.380943,89.924736 71.034477,90.051781 
	C71.034477,90.051781 71.024979,89.970955 71.098053,90.303680 
	C72.128014,91.265984 73.084892,91.895569 74.041771,92.525154 
	C74.727615,93.226433 75.413467,93.927711 76.500946,95.108887 
	C77.771660,96.416351 78.640739,97.243919 79.509827,98.071480 
	C79.437447,98.352165 79.334610,98.629860 79.306580,98.914909 
	C79.294083,99.041985 79.432076,99.183876 79.572266,99.811554 
	C80.235832,102.530731 80.828896,104.757401 81.421967,106.984070 
	C81.162125,109.215134 80.380760,110.827324 77.352386,110.129654 
z"/>
<path fill="#A25557" opacity="1.000000" stroke="none" 
	d="
M65.340378,112.878403 
	C66.416428,106.232521 62.086704,102.574883 57.806160,98.982773 
	C56.186886,97.623940 54.256321,96.636055 52.321732,94.946968 
	C52.786198,93.941879 53.396584,93.468903 54.006966,92.995918 
	C60.568920,94.480804 64.983360,98.955612 68.884186,103.977661 
	C71.321175,107.115120 71.899559,110.266884 67.148956,112.523392 
	C66.566376,112.864647 66.119614,112.899887 65.340378,112.878403 
z"/>
<path fill="#944B4E" opacity="1.000000" stroke="none" 
	d="
M44.112328,100.401459 
	C53.279652,99.422432 57.545540,105.346146 60.980423,112.837486 
	C58.976696,113.449257 56.904320,113.699303 54.418365,113.495567 
	C53.657734,107.817978 50.626808,105.335258 44.171329,104.986923 
	C44.131542,103.596329 44.091759,102.205742 44.112328,100.401459 
z"/>
<path fill="#8A484B" opacity="1.000000" stroke="none" 
	d="
M44.127182,105.337784 
	C50.626808,105.335258 53.657734,107.817978 54.007305,113.439590 
	C46.045300,114.217354 46.045300,114.217354 44.127182,105.337784 
z"/>
<path fill="#A35459" opacity="1.000000" stroke="none" 
	d="
M53.915581,92.686142 
	C53.396584,93.468903 52.786198,93.941879 52.088280,94.706375 
	C49.889347,94.705200 47.777939,94.412498 45.276024,94.040756 
	C44.713104,92.905716 44.540691,91.849731 44.549999,90.328735 
	C44.886887,89.628563 44.998154,89.374191 45.065517,89.100616 
	C45.065517,89.100616 45.064655,88.986710 45.343430,88.968109 
	C46.058041,88.895798 46.493874,88.842087 47.128887,88.821007 
	C47.614357,88.851517 47.855438,88.746056 48.447792,88.484894 
	C49.899441,88.396454 50.954617,88.360352 52.009789,88.324265 
	C52.614594,89.674965 53.219395,91.025673 53.915581,92.686142 
z"/>
<path fill="#49559D" opacity="1.000000" stroke="none" 
	d="
M103.866699,97.553116 
	C103.555267,96.651764 99.724030,95.834114 103.569397,94.020920 
	C103.883842,95.054443 103.910507,96.108833 103.866699,97.553116 
z"/>
<path fill="#14051C" opacity="1.000000" stroke="none" 
	d="
M81.549072,106.873215 
	C80.828896,104.757401 80.235832,102.530731 79.788956,99.886673 
	C80.628799,101.429718 81.322464,103.390167 81.995163,105.757706 
	C81.924934,106.388954 81.825600,106.588142 81.549072,106.873215 
z"/>
<path fill="#2B1A2E" opacity="1.000000" stroke="none" 
	d="
M48.051311,88.537247 
	C47.855438,88.746056 47.614357,88.851517 46.909992,88.662453 
	C45.973541,88.336014 45.455166,88.200752 44.936790,88.065498 
	C44.936790,88.065498 44.869526,87.642525 44.848431,87.429268 
	C45.629395,87.153488 46.431454,87.090965 47.643295,87.428406 
	C48.052486,88.064659 48.051899,88.300957 48.051311,88.537247 
z"/>
<path fill="#1E0913" opacity="1.000000" stroke="none" 
	d="
M44.942444,88.282944 
	C45.455166,88.200752 45.973541,88.336014 46.710812,88.629822 
	C46.493874,88.842087 46.058041,88.895798 45.292641,88.942345 
	C44.963070,88.935181 44.948101,88.500389 44.942444,88.282944 
z"/>
<path fill="#5C3533" opacity="1.000000" stroke="none" 
	d="
M44.853256,89.194328 
	C44.998154,89.374191 44.886887,89.628563 44.578201,90.005249 
	C44.317802,89.815422 44.389908,89.529182 44.853256,89.194328 
z"/>
<path fill="#6A9CAD" opacity="1.000000" stroke="none" 
	d="
M42.851330,112.721146 
	C42.609707,112.779678 42.414993,112.551826 42.144226,112.097649 
	C42.310841,112.088211 42.587532,112.276024 42.851330,112.721146 
z"/>
<path fill="#455099" opacity="1.000000" stroke="none" 
	d="
M54.093117,74.585114 
	C54.187229,74.527679 54.426334,74.845764 54.426334,74.845764 
	C54.426334,74.845764 54.176353,75.021942 54.064095,74.939957 
	C53.951836,74.857964 53.999001,74.642555 54.093117,74.585114 
z"/>
<path fill="#020304" opacity="1.000000" stroke="none" 
	d="
M111.856392,39.660202 
	C109.496544,40.970531 107.121445,41.992916 104.368652,43.084549 
	C97.835121,39.412357 96.934547,37.368214 99.328766,31.340069 
	C100.123062,30.269781 100.588089,29.683481 101.437439,29.042889 
	C103.547089,28.602320 105.272415,28.216045 106.997742,27.829769 
	C109.007217,29.976452 111.016685,32.123131 113.097504,34.634335 
	C113.109039,35.433670 113.049232,35.868484 112.935364,36.629154 
	C112.534592,37.760757 112.187866,38.566505 111.856392,39.660202 
z"/>
<path fill="#92BFCE" opacity="1.000000" stroke="none" 
	d="
M101.053116,29.097183 
	C100.588089,29.683481 100.123062,30.269781 99.386780,30.947355 
	C94.757935,30.908340 91.266685,29.018621 87.441170,26.916870 
	C84.340652,25.213432 79.494049,26.421223 75.454544,26.745049 
	C64.409447,27.630476 57.851139,34.893112 52.137672,43.777359 
	C50.058765,42.283302 48.153511,40.496044 46.307007,38.193336 
	C46.909756,37.449215 47.453751,37.220539 48.243347,37.162895 
	C50.647659,35.551266 53.240105,34.096497 54.882698,31.923672 
	C59.564465,25.730610 65.959251,22.269493 73.228218,21.182821 
	C81.934586,19.881266 90.482262,21.082060 97.731308,26.993212 
	C98.548790,27.659821 99.889359,27.684950 101.001282,28.280109 
	C101.027840,28.734175 101.040482,28.915678 101.053116,29.097183 
z"/>
<path fill="#8AB9C7" opacity="1.000000" stroke="none" 
	d="
M101.437439,29.042889 
	C101.040482,28.915678 101.027840,28.734175 101.116623,27.987814 
	C99.675377,26.098282 98.075462,24.834082 96.600494,23.437889 
	C91.641068,18.743349 85.580711,17.461561 78.977608,16.891903 
	C70.507942,16.161215 63.663837,20.159294 57.301292,24.357552 
	C53.098312,27.130846 47.711109,30.333080 47.997749,36.991867 
	C47.453751,37.220539 46.909756,37.449215 46.155273,37.890057 
	C45.206444,38.058563 44.468098,38.014900 43.366364,37.900143 
	C47.310978,32.414879 51.595642,26.981833 55.946774,21.602556 
	C56.811737,20.533205 57.931313,19.669807 58.967632,18.356445 
	C59.001785,18.001450 59.500446,18.000046 59.749763,17.999207 
	C68.782425,14.806091 77.761124,12.682538 87.052567,15.092807 
	C90.894043,16.089314 94.453545,18.178967 98.133896,19.788359 
	C100.510864,20.827795 102.874420,21.897900 105.621994,22.977051 
	C106.000000,22.999847 106.000916,23.499069 106.001373,23.748657 
	C106.289734,25.059618 106.577637,26.120993 106.931641,27.506069 
	C105.272415,28.216045 103.547089,28.602320 101.437439,29.042889 
z"/>
<path fill="#140612" opacity="1.000000" stroke="none" 
	d="
M62.948219,88.065933 
	C62.948219,88.065933 62.486446,87.985100 62.246643,87.719513 
	C62.006844,87.453934 62.009560,87.034485 62.001045,86.884293 
	C61.992535,86.734108 61.883965,86.453514 61.883965,86.453514 
	C64.129204,87.108994 66.374451,87.764465 68.824112,88.743134 
	C67.676300,88.888229 66.324051,88.710144 64.385376,88.306442 
	C63.517006,87.982552 63.233433,87.977585 62.948219,88.065933 
z"/>
<path fill="#1E183B" opacity="1.000000" stroke="none" 
	d="
M52.911804,86.920547 
	C55.676743,86.675964 58.441685,86.431381 61.545296,86.320160 
	C61.883965,86.453514 61.992535,86.734108 61.562302,86.871819 
	C59.081833,87.016273 57.031605,87.023026 54.635742,87.024750 
	C53.830673,86.986664 53.371239,86.953606 52.911804,86.920547 
z"/>
<path fill="#19020B" opacity="1.000000" stroke="none" 
	d="
M52.505310,86.940552 
	C53.371239,86.953606 53.830673,86.986664 54.637146,87.229660 
	C54.984188,87.439590 54.965321,87.850792 54.965321,87.850792 
	C54.222095,87.945900 53.478867,88.041000 52.372715,88.230179 
	C50.954617,88.360352 49.899441,88.396454 48.447792,88.484894 
	C48.051899,88.300957 48.052486,88.064659 48.042297,87.474167 
	C49.387287,87.066826 50.743050,87.013695 52.505310,86.940552 
z"/>
<path fill="#0F050D" opacity="1.000000" stroke="none" 
	d="
M79.329361,97.730240 
	C78.640739,97.243919 77.771660,96.416351 76.683105,95.273102 
	C77.358727,95.767952 78.253815,96.578476 79.329361,97.730240 
z"/>
<path fill="#10051C" opacity="1.000000" stroke="none" 
	d="
M73.950134,92.168655 
	C73.084892,91.895569 72.128014,91.265984 71.057556,90.307602 
	C71.915482,90.589920 72.886986,91.201042 73.950134,92.168655 
z"/>
<path fill="#140612" opacity="1.000000" stroke="none" 
	d="
M70.908447,89.750793 
	C70.380943,89.924736 69.727417,89.797691 69.001175,89.340988 
	C69.546448,89.157486 70.164429,89.303650 70.908447,89.750793 
z"/>
<path fill="#37111A" opacity="1.000000" stroke="none" 
	d="
M55.383583,87.913422 
	C54.965321,87.850792 54.984188,87.439590 54.982780,87.234680 
	C57.031605,87.023026 59.081833,87.016273 61.570812,87.022003 
	C62.009560,87.034485 62.006844,87.453934 62.019226,87.662750 
	C61.582348,87.929527 61.133080,87.987488 60.347382,88.096748 
	C58.607918,88.090721 57.204884,88.033386 55.383583,87.913422 
z"/>
<path fill="#603737" opacity="1.000000" stroke="none" 
	d="
M63.131142,88.187363 
	C63.233433,87.977585 63.517006,87.982552 63.985035,88.188614 
	C64.171127,88.296402 63.743954,88.396683 63.743954,88.396683 
	C63.743954,88.396683 63.314068,88.308792 63.131142,88.187363 
z"/>
<path fill="#8DBBC9" opacity="1.000000" stroke="none" 
	d="
M48.243347,37.162895 
	C47.711109,30.333080 53.098312,27.130846 57.301292,24.357552 
	C63.663837,20.159294 70.507942,16.161215 78.977608,16.891903 
	C85.580711,17.461561 91.641068,18.743349 96.600494,23.437889 
	C98.075462,24.834082 99.675377,26.098282 101.102707,27.715252 
	C99.889359,27.684950 98.548790,27.659821 97.731308,26.993212 
	C90.482262,21.082060 81.934586,19.881266 73.228218,21.182821 
	C65.959251,22.269493 59.564465,25.730610 54.882698,31.923672 
	C53.240105,34.096497 50.647659,35.551266 48.243347,37.162895 
z"/>
</svg>